<svg xmlns="http://www.w3.org/2000/svg" viewBox="0 0 62 56"><defs><style>.cls-1{fill:#686868;}</style></defs><title>자산 2</title><g id="레이어_2" data-name="레이어 2"><g id="레이어_1-2" data-name="레이어 1"><path class="cls-1" d="M31,56a1,1,0,0,1-.56-.17C10,41.81,0,28.79,0,16A16,16,0,0,1,16,0,17.51,17.51,0,0,1,31,8.6,17.51,17.51,0,0,1,46,0,16,16,0,0,1,62,16c0,12.79-10,25.81-30.44,39.83A1,1,0,0,1,31,56ZM16,2A14,14,0,0,0,2,16c0,11.79,9.76,24.5,29,37.79C50.24,40.5,60,27.79,60,16A14,14,0,0,0,46,2c-6.09,0-12.13,4-14.06,9.34a1,1,0,0,1-1.88,0C28.13,6,22.09,2,16,2Z"/></g></g></svg>